<svg version="1.1" xmlns="http://www.w3.org/2000/svg" xmlns:xlink="http://www.w3.org/1999/xlink" xml:space="preserve" x="0" y="0" viewBox="0 0 516.9 511.4" style="enable-background: new 0 0 516.9 511.4;">
	<style type="text/css">
		.st0{fill: rgb(34, 197, 94);}
		.st1{fill: rgb(255, 255, 255);}
	</style>
	<g>
		<path class="st0" d="M307.5,472.8c-13.3,6.5-26.6,11.3-40.1,15.4c-29.1,8.8-58.9,12.8-89.3,11c-38.7-2.3-74.3-13.5-104.3-39.1 c-14.4-12.3-26.4-26.6-35.8-43.3c-12.4-22.2-18.9-46-21.3-71.1c-3.3-33.3-0.7-66.1,8.6-98.4c4.2-14.7,9.4-29,15.8-42.9 c18.4-39.8,43.4-74.9,75.8-104.4c13.3-12.1,28.1-22.5,42.2-33.5c2.2-1.7,4.8-2.8,7.6-4.4c2.4,2.7,4.6,5,6.7,7.6 c3.7,4.5,7,9.3,11.1,13.5c4,4.1,3.7,8.7,2.7,13.3c-20.2,91.1-40.5,182.1-60.8,273.2c-4.2,19-8.3,38.1-12.4,57.2 c-1.3,6-0.7,11.7,3.8,16.7c5.3,6,10.2,12.3,15,18.7c4.8,6.5,10.7,9.2,19,8.4c8.7-0.8,17.6-0.3,26.4-0.2c5.4,0.1,10.2-1.5,14.4-4.8 c3.8-3,7.6-5.9,11.5-8.8c7.1-5.2,10.9-12.4,12.8-20.8c2.2-9.6,4.3-19.2,6.5-28.8c1.4-6.1,2.2-6.6,8.4-7.1 c5.1-0.4,10.3-1.1,15.4-1.6c3.3-0.3,6.6-0.4,10.6-0.6c3.7,11.3,7.8,22.2,10.7,33.3c3,11.5,9,20.7,18.4,27.7 C293.3,464,300.2,468,307.5,472.8z"/>
		<path class="st0" d="M287.3,114c1.4-7,2.6-13.5,4-19.9c2.8-12.7,5.5-25.4,8.8-38c2.2-8.4,0.4-15.2-5.4-21.6 c-5.1-5.6-9.6-11.8-15.1-18.6c7.7-1.2,14.3-2.8,21-3.3c23.8-1.8,47.6-1.2,70.9,4.7c34.9,8.9,64.4,27.1,88.2,53.9 c22.3,25.1,34.4,55.1,39,88.2c1.7,12.5,2.9,25.2,2.8,37.8c-0.2,23.9-4.3,47.4-11.9,70.1c-3.5,10.4-6.9,20.8-11.2,30.9 c-10.4,24.8-24.2,47.8-40.4,69.2c-12.3,16.2-25.1,32-40.8,45.2c-0.7,0.6-1.6,1.2-3.2,2.3c-2.5-2.9-5.3-5.4-7.2-8.6 c-4.4-7.2-8.8-14.6-12.4-22.2c-11.5-23.8-22.7-47.8-34.1-71.7c-3.7-7.8-3.1-12.2,2.8-18.5c10.9-11.9,21.3-24.3,32.8-35.7 c13.2-13.2,27.3-25.4,40.9-38.1c4.8-4.5,9.7-9.2,13.7-14.4c2.3-3,3.2-7.2,4.2-11.1c1.3-4.5,2.1-9.1,3.1-13.6 c1.8-8.9-1-16.2-7.9-21.8c-5.5-4.4-11.1-8.7-17.3-11.8c-4.9-2.4-10.7-3.4-16.2-4.1c-5.6-0.7-11.3-0.1-17-0.2 c-7.9-0.1-15.2-2.5-21.2-7.6c-14.6-12.3-32-17.2-50.5-19.4C301.1,115.6,294.5,114.8,287.3,114z"/>
	</g>
	<path class="st1" d="M217.6,304.9c-9.7,46.1-19.2,91.7-28.8,137.6c-16.7,1.8-32.9,0.6-50.1,0.9c0.5-4.5,0.5-8.3,1.3-11.9 c17.7-80,35.5-159.9,53.1-239.9c7.3-33.3,14.2-66.7,21.1-100.1c1.1-5.5,1.5-11.2,1.6-16.8c0.2-6.9-3.2-12-9.8-14.1 c-5.5-1.8-11.3-2.7-17-3.9c-1.3-0.3-2.5-0.5-4.6-0.9c0.9-5.2,1.7-10.2,2.5-15c15.2-3.3,81.3-4.8,89.4-1.8 c-17.9,80.8-35.8,161.6-53.7,242.7c4.5,2.3,9,1.7,13.4,1.2c9.6-1.1,18.3-4.8,26.5-9.7c22.9-13.6,43.9-29.7,60.7-50.6 c3.7-4.6,6.1-10.7,8.1-16.4c2.6-7.7-0.5-13.3-8-16.5c-2.9-1.2-5.9-2.2-9.3-3.5c0.9-4.9,1.7-9.6,2.7-14.6c2.2-0.1,4-0.3,5.8-0.3 c27,0,54,0.1,81-0.1c4.2,0,6.5,1.3,7.6,5.3c0.9,3.2,2.3,6.2,3.7,9.8c-37.5,34.9-79.3,64.5-118.9,97.3c0.7,2,1.3,3.8,2,5.7 c13.7,34.9,27.4,69.7,41.1,104.6c1.2,3.1,2.9,6,4.3,9c5.9,12.9,15.7,20.8,29.9,23c2.6,0.4,5.1,1.2,8,2c-0.8,4.1-1.5,7.9-2.4,11.6 c-0.7,3-3.6,2.8-5.7,3c-6.8,0.5-13.6,1.1-20.4,1.1c-15.3-0.1-30.6-0.6-45.9-0.7c-3.8,0-5.6-1.6-6.8-5.1 c-10.9-30.9-21.9-61.8-33-92.7c-3.1-8.6-6.3-17.2-9.3-25.9c-3.1-9.1-8.9-14.2-18.8-14.1C232,305,225.2,304.9,217.6,304.9z"/>
</svg>